<mxfile host="app.diagrams.net" modified="2023-10-22T19:48:03.793Z" agent="Mozilla/5.0 (Windows NT 10.0; Win64; x64) AppleWebKit/537.36 (KHTML, like Gecko) Chrome/118.0.0.0 Safari/537.36" etag="9qXcIw463E4f3B9JJ6LS" version="21.7.5" type="device">
  <diagram name="Страница — 1" id="XlrH2JbzkONEuYXfPKbL">
    <mxGraphModel dx="574" dy="316" grid="1" gridSize="10" guides="1" tooltips="1" connect="1" arrows="1" fold="1" page="1" pageScale="1" pageWidth="827" pageHeight="1169" math="0" shadow="0">
      <root>
        <mxCell id="0" />
        <mxCell id="1" parent="0" />
        <mxCell id="6_kOzFlXT3lK4NE4LQAQ-1" value="ОП" style="rounded=0;whiteSpace=wrap;html=1;" vertex="1" parent="1">
          <mxGeometry x="120" y="280" width="80" height="120" as="geometry" />
        </mxCell>
        <mxCell id="6_kOzFlXT3lK4NE4LQAQ-3" style="edgeStyle=orthogonalEdgeStyle;rounded=0;orthogonalLoop=1;jettySize=auto;html=1;exitX=0.5;exitY=1;exitDx=0;exitDy=0;endArrow=none;endFill=0;" edge="1" parent="1" source="6_kOzFlXT3lK4NE4LQAQ-2">
          <mxGeometry relative="1" as="geometry">
            <mxPoint x="135" y="280" as="targetPoint" />
          </mxGeometry>
        </mxCell>
        <mxCell id="6_kOzFlXT3lK4NE4LQAQ-2" value="ПР" style="rounded=0;whiteSpace=wrap;html=1;" vertex="1" parent="1">
          <mxGeometry x="120" y="220" width="30" height="30" as="geometry" />
        </mxCell>
        <mxCell id="6_kOzFlXT3lK4NE4LQAQ-4" style="edgeStyle=orthogonalEdgeStyle;rounded=0;orthogonalLoop=1;jettySize=auto;html=1;exitX=0.5;exitY=1;exitDx=0;exitDy=0;entryX=0.811;entryY=0;entryDx=0;entryDy=0;entryPerimeter=0;endArrow=none;endFill=0;" edge="1" parent="1" source="6_kOzFlXT3lK4NE4LQAQ-5" target="6_kOzFlXT3lK4NE4LQAQ-1">
          <mxGeometry relative="1" as="geometry">
            <mxPoint x="185" y="279" as="targetPoint" />
          </mxGeometry>
        </mxCell>
        <mxCell id="6_kOzFlXT3lK4NE4LQAQ-5" value="ПР" style="rounded=0;whiteSpace=wrap;html=1;" vertex="1" parent="1">
          <mxGeometry x="170" y="220" width="30" height="30" as="geometry" />
        </mxCell>
        <mxCell id="6_kOzFlXT3lK4NE4LQAQ-7" value="" style="rounded=0;orthogonalLoop=1;jettySize=auto;html=1;edgeStyle=orthogonalEdgeStyle;entryX=1.001;entryY=0.166;entryDx=0;entryDy=0;entryPerimeter=0;endArrow=none;endFill=0;" edge="1" parent="1" source="6_kOzFlXT3lK4NE4LQAQ-6" target="6_kOzFlXT3lK4NE4LQAQ-1">
          <mxGeometry relative="1" as="geometry">
            <mxPoint x="210" y="300" as="targetPoint" />
          </mxGeometry>
        </mxCell>
        <mxCell id="6_kOzFlXT3lK4NE4LQAQ-14" style="edgeStyle=orthogonalEdgeStyle;rounded=0;orthogonalLoop=1;jettySize=auto;html=1;exitX=1;exitY=0.5;exitDx=0;exitDy=0;endArrow=none;endFill=0;entryX=0.5;entryY=1;entryDx=0;entryDy=0;" edge="1" parent="1" source="6_kOzFlXT3lK4NE4LQAQ-6" target="6_kOzFlXT3lK4NE4LQAQ-15">
          <mxGeometry relative="1" as="geometry">
            <mxPoint x="300" y="280" as="targetPoint" />
          </mxGeometry>
        </mxCell>
        <mxCell id="6_kOzFlXT3lK4NE4LQAQ-6" value="СК1" style="rounded=0;whiteSpace=wrap;html=1;" vertex="1" parent="1">
          <mxGeometry x="230" y="290" width="40" height="20" as="geometry" />
        </mxCell>
        <mxCell id="6_kOzFlXT3lK4NE4LQAQ-8" value="" style="rounded=0;orthogonalLoop=1;jettySize=auto;html=1;edgeStyle=orthogonalEdgeStyle;entryX=1.001;entryY=0.166;entryDx=0;entryDy=0;entryPerimeter=0;endArrow=none;endFill=0;" edge="1" parent="1" source="6_kOzFlXT3lK4NE4LQAQ-9">
          <mxGeometry relative="1" as="geometry">
            <mxPoint x="200" y="330" as="targetPoint" />
          </mxGeometry>
        </mxCell>
        <mxCell id="6_kOzFlXT3lK4NE4LQAQ-17" style="edgeStyle=orthogonalEdgeStyle;rounded=0;orthogonalLoop=1;jettySize=auto;html=1;exitX=1;exitY=0.5;exitDx=0;exitDy=0;entryX=0.5;entryY=1;entryDx=0;entryDy=0;endArrow=none;endFill=0;" edge="1" parent="1" source="6_kOzFlXT3lK4NE4LQAQ-9" target="6_kOzFlXT3lK4NE4LQAQ-16">
          <mxGeometry relative="1" as="geometry" />
        </mxCell>
        <mxCell id="6_kOzFlXT3lK4NE4LQAQ-9" value="СК2" style="rounded=0;whiteSpace=wrap;html=1;" vertex="1" parent="1">
          <mxGeometry x="230" y="320" width="40" height="20" as="geometry" />
        </mxCell>
        <mxCell id="6_kOzFlXT3lK4NE4LQAQ-10" value="" style="rounded=0;orthogonalLoop=1;jettySize=auto;html=1;edgeStyle=orthogonalEdgeStyle;entryX=1.001;entryY=0.166;entryDx=0;entryDy=0;entryPerimeter=0;endArrow=none;endFill=0;" edge="1" parent="1" source="6_kOzFlXT3lK4NE4LQAQ-11">
          <mxGeometry relative="1" as="geometry">
            <mxPoint x="200" y="360" as="targetPoint" />
          </mxGeometry>
        </mxCell>
        <mxCell id="6_kOzFlXT3lK4NE4LQAQ-19" style="edgeStyle=orthogonalEdgeStyle;rounded=0;orthogonalLoop=1;jettySize=auto;html=1;exitX=1;exitY=0.5;exitDx=0;exitDy=0;entryX=0.5;entryY=0;entryDx=0;entryDy=0;endArrow=none;endFill=0;" edge="1" parent="1" source="6_kOzFlXT3lK4NE4LQAQ-11" target="6_kOzFlXT3lK4NE4LQAQ-18">
          <mxGeometry relative="1" as="geometry" />
        </mxCell>
        <mxCell id="6_kOzFlXT3lK4NE4LQAQ-11" value="МК1" style="rounded=0;whiteSpace=wrap;html=1;" vertex="1" parent="1">
          <mxGeometry x="230" y="350" width="40" height="20" as="geometry" />
        </mxCell>
        <mxCell id="6_kOzFlXT3lK4NE4LQAQ-12" value="" style="rounded=0;orthogonalLoop=1;jettySize=auto;html=1;edgeStyle=orthogonalEdgeStyle;entryX=1.001;entryY=0.166;entryDx=0;entryDy=0;entryPerimeter=0;endArrow=none;endFill=0;" edge="1" parent="1" source="6_kOzFlXT3lK4NE4LQAQ-13">
          <mxGeometry relative="1" as="geometry">
            <mxPoint x="200" y="390" as="targetPoint" />
          </mxGeometry>
        </mxCell>
        <mxCell id="6_kOzFlXT3lK4NE4LQAQ-21" style="edgeStyle=orthogonalEdgeStyle;rounded=0;orthogonalLoop=1;jettySize=auto;html=1;exitX=1;exitY=0.5;exitDx=0;exitDy=0;entryX=0.5;entryY=0;entryDx=0;entryDy=0;endArrow=none;endFill=0;" edge="1" parent="1" source="6_kOzFlXT3lK4NE4LQAQ-13" target="6_kOzFlXT3lK4NE4LQAQ-20">
          <mxGeometry relative="1" as="geometry" />
        </mxCell>
        <mxCell id="6_kOzFlXT3lK4NE4LQAQ-13" value="МК2" style="rounded=0;whiteSpace=wrap;html=1;" vertex="1" parent="1">
          <mxGeometry x="230" y="380" width="40" height="20" as="geometry" />
        </mxCell>
        <mxCell id="6_kOzFlXT3lK4NE4LQAQ-15" value="ВЗУ" style="rounded=0;whiteSpace=wrap;html=1;" vertex="1" parent="1">
          <mxGeometry x="290" y="250" width="30" height="30" as="geometry" />
        </mxCell>
        <mxCell id="6_kOzFlXT3lK4NE4LQAQ-16" value="ВЗУ" style="rounded=0;whiteSpace=wrap;html=1;" vertex="1" parent="1">
          <mxGeometry x="350" y="280" width="30" height="30" as="geometry" />
        </mxCell>
        <mxCell id="6_kOzFlXT3lK4NE4LQAQ-18" value="УВВ" style="rounded=0;whiteSpace=wrap;html=1;" vertex="1" parent="1">
          <mxGeometry x="350" y="380" width="30" height="30" as="geometry" />
        </mxCell>
        <mxCell id="6_kOzFlXT3lK4NE4LQAQ-20" value="УВВ" style="rounded=0;whiteSpace=wrap;html=1;" vertex="1" parent="1">
          <mxGeometry x="290" y="410" width="30" height="30" as="geometry" />
        </mxCell>
      </root>
    </mxGraphModel>
  </diagram>
</mxfile>
